<svg id="Laag_1" data-name="Laag 1" xmlns="http://www.w3.org/2000/svg" viewBox="0 0 143.98 76.8"><defs><style>.cls-1{fill:#ed1c24;}</style></defs><title>oba_logo</title><path class="cls-1" d="M46.16,0h15V32.2h.2c3.4-4.7,9.2-6.4,15.4-6.4C90.56,25.8,99,38.2,99,51.7c0,14.7-9.5,25.1-23.9,25.1a18.84,18.84,0,0,1-14.9-7.6H60v6.4H46.16ZM72,63.6c7.5,0,12-5,12-12.3S79.46,39,72,39,60,44,60,51.3,64.46,63.6,72,63.6Z" transform="translate(-0.3)"/><path class="cls-1" d="M.3,51.42c0-11.25,7.5-20.25,19.12-20.25s19.13,9,19.13,20.25-7.5,20.25-19.13,20.25S.3,62.67.3,51.42Zm28.35,0c0-5.63-3.75-9-9.23-9s-9.22,3.37-9.22,9,3.75,9,9.22,9S28.65,57,28.65,51.42Z" transform="translate(-0.3)"/><path class="cls-1" d="M138.8,44.71v.15c3.9,2.47,5.47,7,5.47,11.55,0,6.82-3.9,13-11.25,13-12.6,0-12.82-15.3-12.82-24.67-4,0-6.53,3.3-6.53,7.2A12,12,0,0,0,118,61.06l-6.15,6C108,62.93,106,56.93,106,51c0-13.13,6.68-16.65,18.83-16.65h18.52V44.71Zm-11.4,2.77c0,3.45.3,11.1,5.25,11.1,2.7,0,4-2.85,4-5.32,0-4.43-2.32-8.55-6.82-8.55h-2.4Z" transform="translate(-0.3)"/></svg>